<?xml version="1.0" encoding="UTF-8" standalone="no"?>
<!-- Generator: Adobe Illustrator 22.0.0, SVG Export Plug-In . SVG Version: 6.00 Build 0)  -->

<svg
   xmlns:dc="http://purl.org/dc/elements/1.1/"
   xmlns:cc="http://creativecommons.org/ns#"
   xmlns:rdf="http://www.w3.org/1999/02/22-rdf-syntax-ns#"
   xmlns:svg="http://www.w3.org/2000/svg"
   xmlns="http://www.w3.org/2000/svg"
   xmlns:sodipodi="http://sodipodi.sourceforge.net/DTD/sodipodi-0.dtd"
   xmlns:inkscape="http://www.inkscape.org/namespaces/inkscape"
   version="1.1"
   x="0px"
   y="0px"
   viewBox="0 0 1000 1000"
   style="enable-background:new 0 0 1000 1000;"
   xml:space="preserve"
   id="svg2"
   inkscape:version="0.91 r13725"
   sodipodi:docname="20180529赛欧3#楼11层平面布置图111.svg"><metadata
     id="metadata88"><rdf:RDF><cc:Work
         rdf:about=""><dc:format>image/svg+xml</dc:format><dc:type
           rdf:resource="http://purl.org/dc/dcmitype/StillImage" /></cc:Work></rdf:RDF></metadata><defs
     id="defs86" /><sodipodi:namedview
     pagecolor="#ffffff"
     bordercolor="#666666"
     borderopacity="1"
     objecttolerance="10"
     gridtolerance="10"
     guidetolerance="10"
     inkscape:pageopacity="0"
     inkscape:pageshadow="2"
     inkscape:window-width="1440"
     inkscape:window-height="855"
     id="namedview84"
     showgrid="false"
     inkscape:zoom="0.3337544"
     inkscape:cx="605.16872"
     inkscape:cy="375.51218"
     inkscape:window-x="-3"
     inkscape:window-y="5"
     inkscape:window-maximized="0"
     inkscape:current-layer="svg2" /><style
     type="text/css"
     id="style4">
	.st0{opacity:0.33;fill:#FFFFFD;stroke:#EFEFEF;stroke-miterlimit:10;}
	.st1{fill:#D5D9FC;stroke:#C6CCFF;stroke-miterlimit:10;}
	.st2{fill:#EDDFF6;stroke:#DDC1E9;stroke-miterlimit:10;}
	.st3{fill:#ECE8FF;stroke:#DAD2FD;stroke-miterlimit:10;}
	.st4{fill:#F0F0F0;stroke:#DEDEDE;stroke-miterlimit:10;}
	.st5{fill:#E2F4FF;stroke:#BBECFF;stroke-miterlimit:10;}
</style><path
     style="opacity:1;fill:#fffffd;stroke:#efefef;stroke-miterlimit:10"
     d="M 521.95385,43.467796 570.66741,30.313098 702.56275,507.21718 743.36968,497.03285 765.6,577.2 l 1.22358,84.6 -17.08165,0 0.21027,129.12542 146.51317,0.9837 10.63856,39.20283 L 50.574527,831.08837 50.2,791.76083 l 652.1017,0.33578 -0.13002,-137.60639 -215.49469,0.13534 -0.057,-90.01289 163.18518,-43.85514 z"
     id="polygon9"
     inkscape:connector-curvature="0"
     sodipodi:nodetypes="cccccccccccccccccc" /><path
     inkscape:connector-curvature="0"
     id="polygon12"
     d="M 726.8,165.1 615.6,194.7 571,30.8 683.4,1.1 Z"
     style="fill:#d5d9fc;stroke:#c6ccff;stroke-miterlimit:10" /><path
     inkscape:connector-curvature="0"
     id="polygon14"
     d="m 726.8,165.1 40.5,153.2 -109.2,29 -42.5,-152.6 z"
     style="fill:#d5d9fc;stroke:#c6ccff;stroke-miterlimit:10" /><path
     inkscape:connector-curvature="0"
     id="polygon16"
     d="M 767.3,318.3 809.7,478.7 702.9,506.9 658.1,347.3 Z"
     style="fill:#d5d9fc;stroke:#c6ccff;stroke-miterlimit:10" /><path
     inkscape:connector-curvature="0"
     id="polygon18"
     d="m 809.7,478.7 21.7,81.7 -65.8,16.8 -22.4,-80.5 z"
     style="fill:#d5d9fc;stroke:#c6ccff;stroke-miterlimit:10" /><path
     inkscape:connector-curvature="0"
     id="polygon20"
     d="m 749.7,791.9 146.3,0 -33.9,-130.1 -112.4,0 z"
     style="fill:#d5d9fc;stroke:#c6ccff;stroke-miterlimit:10" /><path
     inkscape:connector-curvature="0"
     id="polygon22"
     d="m 949.8,998.9 -254.8,0 0,-167.3 212,0 z"
     style="fill:#d5d9fc;stroke:#c6ccff;stroke-miterlimit:10" /><path
     inkscape:connector-curvature="0"
     id="rect24"
     d="m 536.59998,831.59998 158.39999,0 0,167.19999 -158.39999,0 z"
     style="fill:#d5d9fc;stroke:#c6ccff;stroke-miterlimit:10" /><path
     inkscape:connector-curvature="0"
     id="rect26"
     d="m 378.20001,831.59998 158.4,0 0,167.19999 -158.4,0 z"
     style="fill:#d5d9fc;stroke:#c6ccff;stroke-miterlimit:10" /><path
     inkscape:connector-curvature="0"
     id="rect28"
     d="m 219.89999,831.59998 158.4,0 0,168.19999 -158.4,0 z"
     style="fill:#d5d9fc;stroke:#c6ccff;stroke-miterlimit:10" /><path
     inkscape:connector-curvature="0"
     id="rect30"
     d="m 50.200001,831.59998 169.699999,0 0,168.39999 -169.699999,0 z"
     style="fill:#d5d9fc;stroke:#c6ccff;stroke-miterlimit:10" /><path
     inkscape:connector-curvature="0"
     id="rect32"
     d="m 376.29999,662.29999 110.6,0 0,129.5 -110.6,0 z"
     style="fill:#d5d9fc;stroke:#c6ccff;stroke-miterlimit:10" /><path
     inkscape:connector-curvature="0"
     id="rect34"
     d="m 218.2,661.79999 158,0 0,129.89999 -158,0 z"
     style="fill:#d5d9fc;stroke:#c6ccff;stroke-miterlimit:10" /><path
     inkscape:connector-curvature="0"
     id="polygon36"
     d="m 454.3,445.4 -12.3,-42.3 165.9,-42.7 42.2,160.5 -39,10.3 -31.4,-118.5 z"
     style="fill:#d5d9fc;stroke:#c6ccff;stroke-miterlimit:10" /><path
     inkscape:connector-curvature="0"
     id="polygon38"
     d="M 607.9,360.4 566.4,207.6 402.4,251 442,403.1 Z"
     style="fill:#d5d9fc;stroke:#c6ccff;stroke-miterlimit:10" /><path
     inkscape:connector-curvature="0"
     id="polygon40"
     d="m 566.4,207.6 -43.8,-164 -39.5,10.5 43,164.2 z"
     style="fill:#d5d9fc;stroke:#c6ccff;stroke-miterlimit:10" /><path
     style="fill:#d5d9fc;stroke:#c6ccff;stroke-miterlimit:10"
     inkscape:connector-curvature="0"
     id="path42"
     d="m 486.9,769.1 0,-65.9 0,65.9 z"
     class="st1" /><path
     inkscape:connector-curvature="0"
     id="polygon45"
     d="m 569.3,542.3 -84,22.2 -17.1,-64 84.4,-22 z"
     style="fill:#eddff6;stroke:#ddc1e9;stroke-miterlimit:10" /><path
     inkscape:connector-curvature="0"
     id="polygon47"
     d="m 552.5,478.7 -13.9,-54.9 -84.3,21.6 14.4,55.1 z"
     style="fill:#eddff6;stroke:#ddc1e9;stroke-miterlimit:10" /><path
     inkscape:connector-curvature="0"
     id="polygon49"
     d="m 538.1,423.8 41.6,-11.1 31.4,118.5 -41.8,11.1 z"
     style="fill:#eddff6;stroke:#ddc1e9;stroke-miterlimit:10" /><path
     inkscape:connector-curvature="0"
     id="polygon52"
     d="m 118.1,661.8 -67.9,0 0,130.1 67.9,0 0,-37.3 0,-15.5 z"
     style="fill:#ece8ff;stroke:#dad2fd;stroke-miterlimit:10" /><path
     inkscape:connector-curvature="0"
     id="polygon54"
     d="m 359,86.9 17.6,68.2 124.2,-33.5 -17.7,-67.5 z"
     style="fill:#ece8ff;stroke:#dad2fd;stroke-miterlimit:10" /><path
     inkscape:connector-curvature="0"
     id="rect56"
     d="m 486.39999,703.20001 216,0 0,66 -216,0 z"
     style="fill:#ece8ff;stroke:#dad2fd;stroke-miterlimit:10" /><path
     inkscape:connector-curvature="0"
     id="rect58"
     d="m 118.1,739.09998 49,0 0,52.79999 -49,0 z"
     style="fill:#ece8ff;stroke:#dad2fd;stroke-miterlimit:10" /><path
     inkscape:connector-curvature="0"
     id="polygon61"
     d="m 218.2,661.8 -100.1,0 0,77.3 49,0 0,52.6 51.1,0 z"
     style="fill:#f0f0f0;stroke:#dedede;stroke-miterlimit:10" /><path
     inkscape:connector-curvature="0"
     id="rect63"
     d="m 486.89999,769.09998 65.7,0 0,22.7 -65.7,0 z"
     style="fill:#f0f0f0;stroke:#dedede;stroke-miterlimit:10" /><path
     inkscape:connector-curvature="0"
     id="rect65"
     d="m 552.59998,769.20001 45.2,0 0,22.7 -45.2,0 z"
     style="fill:#f0f0f0;stroke:#dedede;stroke-miterlimit:10" /><path
     inkscape:connector-curvature="0"
     id="rect67"
     d="m 597.90002,769.20001 45.20001,0 0,22.7 -45.20001,0 z"
     style="fill:#f0f0f0;stroke:#dedede;stroke-miterlimit:10" /><path
     inkscape:connector-curvature="0"
     id="rect69"
     d="m 643.09998,769.09998 59.5,0 0,22.7 -59.5,0 z"
     style="fill:#f0f0f0;stroke:#dedede;stroke-miterlimit:10" /><path
     inkscape:connector-curvature="0"
     id="polygon71"
     d="m 513.7,170.7 12.4,47.6 -123.7,32.7 -25.8,-95.9 71.3,-19.2 13,48.9 z"
     style="fill:#f0f0f0;stroke:#dedede;stroke-miterlimit:10" /><path
     inkscape:connector-curvature="0"
     id="polygon73"
     d="m 500.8,121.6 12.9,49.1 -52.8,14.1 -13,-48.9 z"
     style="fill:#f0f0f0;stroke:#dedede;stroke-miterlimit:10" /><path
     inkscape:connector-curvature="0"
     id="rect76"
     d="m 603.59998,654.20001 45.2,0 0,49 -45.2,0 z"
     style="fill:#e2f4ff;stroke:#bbecff;stroke-miterlimit:10" /><path
     inkscape:connector-curvature="0"
     id="rect78"
     d="m 558.29999,654.20001 45.3,0 0,49 -45.3,0 z"
     style="fill:#e2f4ff;stroke:#bbecff;stroke-miterlimit:10" /><path
     inkscape:connector-curvature="0"
     id="rect80"
     d="m 486.70001,654.20001 71.6,0 0,49 -71.6,0 z"
     style="fill:#e2f4ff;stroke:#bbecff;stroke-miterlimit:10" /><path
     inkscape:connector-curvature="0"
     id="rect82"
     d="m 648.79999,654.20001 53.6,0 0,49 -53.6,0 z"
     style="fill:#e2f4ff;stroke:#bbecff;stroke-miterlimit:10" /></svg>